<svg width="977" height="1172" viewBox="0 0 977 1172" fill="none" xmlns="http://www.w3.org/2000/svg">
<g clip-path="url(#clip0_58_2)">
<path d="M460 12.9999C168.8 66.5999 138.667 294 160 401C216.8 223.4 395 174.333 477 172C696.2 164 785.667 321.333 803 401L811 299C763 66.9999 557 11.6666 460 12.9999Z" fill="#FEFEFC" stroke="black"/>
<path d="M584.911 18.1672C614.344 25.3362 643.372 43.0263 669.926 58.025C701.013 77.7459 726.292 103.143 751.228 129.825C769.069 153.033 786.689 179.837 798.245 206.47C813.353 236.822 819.529 268.471 824.173 301.649C834.172 305.234 848.901 317.896 845.261 329.848C851.327 330.386 848.827 334.448 849.427 338.877C849.109 372.96 849.758 407.435 849.109 441.445C844.183 454.266 838.779 465.766 825.092 471.234C820.742 478.746 820.926 490.539 816.061 498.969C809.665 509.184 819.333 515.876 814.321 525.443C805.952 559.342 789.949 588.545 769.816 616.768C776.397 634.213 770.711 653.335 755.406 663.562C758.715 654.191 767.488 651.989 767.684 640.6C771.029 633.663 769.902 623.766 765.748 617.098C772.316 622.163 764.18 607.164 772.867 608.131C774.84 596.656 784.521 597.426 787.645 585.535C789.716 580.36 787.155 577.779 793.392 574.708C790.868 566.781 802.117 567.992 797.399 562.022C793.135 558.266 800.511 557.067 802.693 554.51C796.1 553.813 793.49 551.549 789.336 557.923C793.564 540.515 812.238 519.448 794.421 504.07C783.369 538.007 770.012 570.194 748.63 599.188C744.905 603.445 753.09 610.309 757.122 610.602C754.475 612.902 751.644 620.45 757.306 620.548C759.242 620.389 757.257 625.332 757.477 626.445C755.945 624.61 754.365 622.824 752.698 621.111C749.512 617.942 746.498 614.028 742.638 611.691C739.697 611.85 736.793 615.973 734.588 617.857C735.151 611.446 723.449 614.823 719.344 612.975C729.024 602.87 737.724 592.202 746.326 581.168C758.372 574.158 764.952 560.676 770.882 548.063C780.391 528.807 785.366 508.67 790.243 487.909C790.88 484.019 789.961 480.544 788.969 476.838C789.973 470.072 791.701 463.49 792.228 456.652C794.091 439.573 794.164 422.764 794.728 405.661C793.012 400.866 788.466 397.697 787.02 392.522C786.726 388.889 785.954 385.365 785.084 381.83C785.77 379.395 787.878 378.221 788.172 381.609C789.777 386.87 792.951 398.749 798.943 400.021C800.732 378.111 800.56 358.524 800.23 336.283C800.475 328.539 801.859 321.015 801.761 313.235C801.651 306.971 807.79 301.894 807.153 296.071C797.901 232.222 768.125 168.863 721.966 123.403C665.294 61.9643 583.93 23.2442 500.435 17.9837C489.774 16.5768 474.972 16.5768 464.312 17.9959C380.289 23.3421 301.021 62.2212 242.523 122.13C214.622 150.806 194.023 182.651 178.143 219.316C168.561 218.777 162.728 215.805 159.983 227.194C162.838 231.917 159.922 229.886 156.577 230.889C167.531 198.408 183.204 170.405 203.63 143.16C244.974 86.0037 305.702 44.8736 371.479 20.8586C440.773 -2.83829 515.384 -5.8111 584.911 18.1672Z" fill="#0F152D"/>
<path d="M232.156 147.21C223.064 163.456 219.008 181.146 226.152 198.934C232.524 206.458 242.204 216.257 252.767 216.184C255.475 216.588 260.964 213.823 261.589 217.713C243.638 230.277 229.865 246.414 215.908 263.052C211.117 270.539 200.922 281.806 199.77 290.076C201.008 293.624 194.881 297.49 193.827 300.977C193.349 311.73 185.213 322.422 181.892 332.992C176.513 347.269 171.906 366.195 167.519 380.325C162.471 377.426 169.333 368.287 164.603 366.623C164.296 352.86 164.149 338.877 164.725 325.114C165.938 327.206 164.492 335.109 167.948 333.8C167.887 322.557 166.526 312.232 162.36 301.747C161.613 289.624 167.936 276.289 170.717 264.41C181.304 223.169 202.013 188.34 223.934 152.47C224.363 149.51 235.636 136.75 232.156 147.21Z" fill="#A3BED7"/>
<path d="M736.732 149.191C769.976 193.307 790.341 243.844 804.506 296.988C805.401 296.707 806.283 296.401 807.153 296.071C807.79 301.894 801.651 306.971 801.761 313.235C801.859 321.015 800.475 328.539 800.23 336.283C799.053 342.816 793.613 338.595 793.122 343.281C796.149 346.144 797.632 348.884 793.135 351.294C798.624 350.903 799.605 367.296 793.098 360.91C784.655 348.444 786.738 334.668 779.631 321.701C775.196 309.369 768.542 298.224 762.868 286.492C764.057 280.986 756.778 274.637 754.058 270.086C739.048 248.322 719.687 231.733 699.579 214.924C721.782 220.16 740.837 204.231 742.871 182.308C744.206 170.295 737.014 160.508 736.732 149.191Z" fill="#A4BED7"/>
<path d="M570.06 163.823C645.014 180.73 718.131 223.194 762.869 286.492C768.542 298.224 775.196 309.369 779.632 321.7C786.739 334.668 784.656 348.444 793.098 360.91C799.605 367.296 798.625 350.903 793.135 351.294C797.632 348.884 796.149 346.144 793.123 343.281C793.613 338.595 799.053 342.816 800.23 336.283C800.561 358.524 800.732 378.111 798.943 400.021C792.951 398.749 789.778 386.87 788.172 381.61C787.878 378.221 785.771 379.395 785.084 381.83C785.734 366.978 784.092 354.879 777.205 341.299L775.306 342.645C775.343 339.097 770.454 331.696 777.132 333.188C765.209 298.762 738.435 267.982 711.049 244.579C650.688 192.634 567.903 166.576 489.113 163.896C407.223 163.97 321.191 189.893 256.97 241.642C228.676 265.144 203.238 295.006 188.46 328.906C186.965 334.216 179.466 350.144 183.534 353.765C181.28 361.974 180.373 369.62 179.687 378.062C175.655 374.489 172.96 393.195 170.129 395.996C169.333 397.905 165.179 404.45 164.823 398.749C165.706 390.369 163.941 381.903 164.039 373.437C164.198 371.162 164.407 368.899 164.603 366.623C169.333 368.287 162.471 377.426 167.519 380.325C171.906 366.195 176.513 347.269 181.892 332.992C185.213 322.422 193.35 311.73 193.827 300.976C194.881 297.49 201.008 293.624 199.77 290.076C227.537 246.915 272.103 213.37 317.956 191.239C395.876 154.807 486.196 143.087 570.06 163.823Z" fill="#8EA9C6"/>
<path d="M489.113 163.896C567.903 166.576 650.688 192.634 711.048 244.579C738.435 267.982 765.209 298.762 777.132 333.188C770.453 331.696 775.343 339.097 775.306 342.645C778.81 359.271 779.068 376.704 779.84 393.635C777.891 407.973 782.805 425.272 776.09 438.02C762.77 512.157 721.55 580.409 659.412 623.876C651.741 629.014 644.291 634.458 636.817 639.866C631.425 642.239 623.681 646.68 621.487 652.344C530.137 692.275 419.709 692.373 331.103 645.065C326.986 649.016 335.392 651.292 338.002 652.442C352.437 656.895 362.644 665.74 373.868 675.246C377.459 689.192 396.684 687.626 408.166 691.321C510.74 712.706 626.021 688.446 708.242 622.567C714.626 620.573 716.771 619.374 719.344 612.976C723.449 614.823 735.151 611.446 734.587 617.857C678.466 675.87 591.209 705.378 512.161 711.592C470.806 713.574 429.94 711.495 389.639 701.341C382.948 698.539 387.482 710.491 388.254 713.403C388.18 714.993 388.033 716.498 388.193 718.076L388.499 720.621C389.859 725.563 382.85 738.8 390.043 739.889C428.151 749.358 467.301 750.569 506.268 749.994C549.51 747.499 591.675 741.284 632.148 725.196C641.105 723.655 628.594 716.095 631.131 709.672C632.369 707.959 633.618 706.234 634.942 704.595C641.203 702.625 646.987 702.613 650.026 709.317C643.764 707.678 639.868 704.778 636.118 712.106C637.233 719.581 644.536 723.398 648.8 716.364C648.776 714.015 649.658 715.568 651.129 715.74C654.866 717.868 660.331 712.865 663.934 711.605C697.913 695.909 730.397 672.934 753.948 643.683C758.519 638.373 757.403 632.917 757.477 626.445C757.256 625.332 759.241 620.389 757.305 620.548C751.644 620.45 754.475 612.902 757.122 610.602C769.645 594.368 780.183 576.237 789.336 557.923C793.49 551.55 796.1 553.813 802.692 554.51C800.511 557.067 793.135 558.266 797.399 562.022C802.117 567.992 790.868 566.781 793.392 574.708C787.155 577.779 789.716 580.36 787.645 585.535C784.52 597.426 774.84 596.656 772.867 608.131C764.18 607.165 772.316 622.163 765.748 617.098C769.902 623.766 771.029 633.663 767.684 640.6C767.488 651.989 758.715 654.191 755.406 663.562C764.253 674.365 774.742 681.644 783.491 692.141C809.996 719.006 831.611 750.863 852.601 782.096C858.421 796.165 871.177 808.729 873.371 823.752C881.311 827.679 878.542 832.536 876.495 839.228C880.76 840.207 879.681 833.625 882.071 837.148C891.702 857.065 902.841 884.799 910.364 905.67C914.469 916.166 915.217 930.578 921.539 939.668C928.267 966.521 939.001 1006.23 944.392 1034.22C945.863 1045.45 952.32 1062.58 950.188 1072.83C955.972 1078.66 953.46 1092.19 956.609 1100.29C961.327 1124.02 962.76 1148.05 965.799 1172H814.909C808.121 1130.11 800.756 1087.9 789.569 1046.95C786.064 1032.94 782.241 1018.78 777.254 1005.23C761.545 952.378 741.474 900.311 718.376 850.226C706 810.723 691.136 771.685 676.481 732.928C675.917 731.644 673.724 726.395 672.021 727.276C591.319 765.996 494.97 775.233 407.247 760.601C403.13 760.748 394.185 755.952 391.379 758.79C395.888 773.679 396.991 786.855 393.462 802.147C391.513 809.108 389.075 814.846 384.7 820.632C380.056 826.052 384.664 832.891 385.35 838.983C389.099 864.515 377.642 889.619 354.667 902.049C356.836 922.919 351.334 940.769 335.931 955.437C333.799 970.901 332.99 983.697 329.78 1000.08C320.909 1035.94 307.81 1067.79 286.782 1098.3C278.805 1110.64 261.651 1119.71 261.798 1134.82C259.371 1147.18 257.411 1159.64 254.997 1172H173.021C174.087 1168.2 173.523 1165.6 169.149 1164.93C140.279 1163.22 114.253 1154.49 90.2728 1138.42C63.1067 1120.1 43.9545 1092.06 29.287 1063.36C5.90728 1009.39 7.10812 948.831 28.9929 894.574C30.7084 898.109 30.5859 899.027 30.8309 894.305C34.409 872.969 49.1622 851.902 61.526 834.383C80.2371 807.016 103.801 784.543 129.986 764.467C137.412 724.071 156.711 686.036 194.513 666.18C201.976 663.085 200.199 653.934 202.147 647.108C202.956 632.489 201.265 613.71 190.752 602.467C180.25 588.85 171.636 573.473 164.443 557.85C158.01 544.356 149.347 526.091 154.31 511.117C155.008 506.627 150.303 501.831 148.747 497.672C143.98 489.426 145.254 479.443 140.573 471.54C128.798 466.488 118.199 457.643 116.115 444.345C114.437 422.422 115.834 400.046 115.38 378.025C116.789 358.598 111.52 335.623 120.416 318.128C125.244 309.369 132.78 306.445 140.635 301.686C143.759 276.949 148.097 255.063 156.577 230.889C159.922 229.886 162.838 231.917 159.983 227.194C162.728 215.805 168.561 218.777 178.143 219.316C168.217 243.685 160.829 269.89 158.145 296.071C158.635 304.402 163.818 311.363 163.524 320.245C163.291 337.788 162.25 356.029 164.039 373.437C163.941 381.903 165.705 390.369 164.823 398.749C165.179 404.45 169.332 397.905 170.129 395.997C172.96 393.195 175.655 374.489 179.687 378.062C178.67 383.689 177.542 389.292 176.599 394.932C164.125 411.717 171.109 427.046 171.023 446.07C174.234 484.276 185.091 521.442 204.329 554.669C206.742 560.333 209.12 551.574 210.7 549.58C212.808 546.02 216.031 543.781 213.568 539.365C193.153 500.999 182.309 456.982 184 413.503C183.351 390.491 184.76 367.834 188.007 345.055C190.372 339.256 188.73 334.717 188.46 328.906C203.238 295.006 228.676 265.144 256.97 241.642C321.19 189.893 407.222 163.97 489.113 163.896Z" fill="#080E27"/>
<path d="M967.169 1173.6C967.169 1015.6 878.669 754.104 759.669 668.104L386.669 708.104C389.069 676.904 351.669 655.77 332.669 649.104C335.869 591.504 325.336 567.104 319.669 562.104C310.869 530.904 272.002 525.104 253.669 526.104C222.469 526.104 210.002 550.104 207.669 562.104C199.669 599.704 201.002 645.104 202.669 663.104C149.869 686.304 134.002 740.104 132.669 764.104C78.2689 798.504 42.6689 863.104 31.6689 891.104C-0.331146 979.904 18.3355 1042.1 31.6689 1062.1C66.8689 1149.3 143.002 1167.1 176.669 1165.1V1173.6H967.169Z" fill="#080E27" stroke="black"/>
<path d="M540.308 182.565C557.389 187.251 577.816 194.053 592.103 204.207C572.62 202.678 553.921 195.986 534.23 194.958C504.307 191.3 473.33 190.493 443.407 194.591C406.646 200.916 371.013 215.56 339.718 235.733C322.661 248.236 306.854 258.525 292.603 274.931C286.035 280.852 281.232 288.327 274.517 293.954C263.611 284.681 276.833 271.224 281.023 261.975C295.47 247.013 312.245 235.085 329.657 223.854C337.23 219.707 343.663 214.581 351.567 210.923C367.043 199.472 383.23 191.435 402.113 187.177C447.536 176.253 494.296 173.488 540.308 182.565Z" fill="#EDF7F8"/>
<path d="M598.5 266.5C652.5 261.3 675 243 679.5 234.5C633.1 184.1 525.834 175.833 478 178C398.8 176 322.667 225.5 294.5 250.5C295 257.166 295.7 271.3 294.5 274.5C293.3 277.7 297.667 279.833 300 280.5C308.8 280.5 314.667 276.5 316.5 274.5C331.3 261.7 346 263.833 351.5 266.5C367.5 269.3 404.167 262 420.5 258C439.3 251.2 466.667 250.166 478 250.5C515.2 263.3 573.834 266.5 598.5 266.5Z" fill="#0D293F" stroke="black"/>
<path d="M625.09 204.097C642.907 210.103 659.571 221.102 675.329 231.231C680.047 234.229 672.401 239.465 674.251 240.835C682.755 242.572 670.808 241.202 669.276 244.737C664.485 248.432 656.337 249.203 652.428 252.469C661.606 258.598 648.127 251.65 648.065 257.962C638.642 248.383 621.463 246.254 622.406 264.348C621.414 261.498 621.402 258.684 621.132 255.699C620.176 262.232 614.858 263.015 609.344 264.14C602.347 264.116 610.067 254.39 602.654 259.981C601.649 266.807 594.664 267.615 593.635 260.654C593.145 263.724 592.741 266.746 591.944 269.78C587.717 269.438 583.796 261.804 581.235 266.893C575.475 272.459 575.034 266.342 569.986 263.773C561.47 265.474 563.626 267.651 558.002 260.641C553.578 265.78 551.287 264.727 549.424 258.574C541.46 262.538 536.497 259.773 528.581 257.913C525.31 264.691 523.435 259.92 524.427 255.014C503.462 256.127 490.559 251.845 471.272 247.013C476.148 253.338 463.123 247.979 460.868 248.089C454.631 250.977 453.553 249.925 447.402 247.943C442.427 252.445 436.913 249.925 431.472 253.191C426.411 256.127 422.392 256.849 416.56 256.69C429.781 251.16 441.814 244.945 452.254 234.914C458.013 232.1 464.459 226.118 468.453 221.53C471.37 221.102 474.47 224.344 476.835 225.738C481.025 224.148 479.947 218.887 484.42 217.799C484.518 224.075 492.115 214.116 489.811 220.955C485.682 226.998 498.805 224.295 495.656 220.037C494.872 214.116 505.128 222.949 497.911 223.328C503.045 227.121 507.309 223.928 513.277 224.454C508.461 234.926 522.883 228.405 528.397 231.598C529.549 228.515 529.476 224.784 529.966 221.518C534.916 221.934 535.406 231.415 542.55 231.415C541.3 227.427 539.585 227.83 544.719 227.439C543.935 217.921 552.696 224.735 555.931 227.463C555.159 238.119 559.877 221.248 563.896 226.901C566.383 225.885 574.201 220.673 575.414 223.451C573.772 232.381 578.747 221.2 582.754 225.616C586.21 228.491 581.59 219.01 584.776 222.68C591.295 228.503 598.218 224.258 600.877 216.979C609.81 218.178 615.177 218.753 623.938 216.404C631.78 216.649 614.025 208.489 623.423 211.058C630.469 213.48 623.583 207.987 625.09 204.097Z" fill="#0D293F"/>
<path d="M563.933 184.596C584.739 189.49 605.411 195.705 625.09 204.097C623.583 207.987 630.469 213.48 623.424 211.058C614.025 208.489 631.781 216.649 623.938 216.404C615.177 218.753 609.81 218.178 600.877 216.979C598.218 224.258 591.295 228.503 584.776 222.68C581.59 219.01 586.21 228.491 582.754 225.616C578.747 221.2 573.772 232.382 575.414 223.451C574.201 220.674 566.384 225.885 563.896 226.901C559.877 221.249 555.159 238.119 555.931 227.464C552.696 224.735 543.935 217.921 544.719 227.439C539.585 227.831 541.301 227.427 542.55 231.415C535.407 231.415 534.917 221.934 529.966 221.518C529.476 224.784 529.549 228.516 528.398 231.599C522.884 228.406 508.461 234.926 513.277 224.454C507.309 223.928 503.045 227.121 497.911 223.329C505.128 222.949 494.872 214.116 495.656 220.038C498.805 224.295 485.682 226.999 489.811 220.955C492.115 214.116 484.518 224.075 484.42 217.799C479.947 218.888 481.026 224.148 476.835 225.739C474.47 224.344 471.37 221.102 468.453 221.53C464.459 226.118 458.013 232.1 452.254 234.914C460.427 227.145 465.427 218.973 459.888 207.73C456.531 203.828 450.477 197.564 444.792 199.203C443.799 197.601 443.26 196.512 443.407 194.591C473.33 190.493 504.307 191.3 534.23 194.958C553.922 195.986 572.621 202.678 592.104 204.207C577.816 194.053 557.389 187.251 540.308 182.565C547.856 180.058 556.042 183.446 563.933 184.596Z" fill="#12475E"/>
<path d="M443.407 194.591C443.26 196.512 443.799 197.601 444.792 199.203C435.626 199.448 424.978 203.901 421.669 212.905C420.027 221.86 431.693 221.175 436.962 218.423C445.245 215.915 456.433 205.944 444.792 199.203C450.477 197.564 456.531 203.828 459.888 207.73C465.427 218.973 460.427 227.146 452.254 234.914C441.814 244.946 429.781 251.161 416.56 256.69C405.911 261.535 395.104 263.504 383.978 266.856C369.151 268.239 355.66 270.661 345.538 257.131C339.448 251.454 344.926 239.269 339.718 235.734C371.013 215.56 406.647 200.916 443.407 194.591Z" fill="#09AEB1"/>
<path d="M444.792 199.203C456.432 205.944 445.245 215.915 436.962 218.422C431.693 221.175 420.027 221.86 421.669 212.905C424.978 203.901 435.626 199.448 444.792 199.203Z" fill="#DEF8F8"/>
<path d="M648.065 257.962C651.729 263.81 655.099 269.878 648.163 274.992C638.728 279.726 625.997 274.551 622.406 264.348C621.463 246.255 638.642 248.383 648.065 257.962Z" fill="#F0F6F7"/>
<path d="M281.023 261.975C276.833 271.224 263.611 284.681 274.517 293.954C272.421 296.646 272.066 298.738 272.066 302.114C263.746 295.288 255.181 300.34 249.189 307.314C240.489 316.611 233.247 335.513 245.439 345.018C234.864 360.824 231.47 382.503 228.872 401.037C224.657 441.935 234.141 482.661 254.041 518.469C256.504 522.898 252.767 520.904 251.186 518.947C230.073 488.9 216.337 453.422 211.239 417.112C205.885 376.349 219.511 337.825 243.037 304.855C253.588 289.489 265.241 272.374 281.023 261.975Z" fill="#15A4AD"/>
<path d="M323.85 272.545C336.177 281.402 323.935 300.01 314.757 306.714C309.537 311.106 294.76 316.428 292.235 306.677C290.287 296.474 295.593 290.259 301.021 282.552C307.834 276.227 313.924 271.505 323.85 272.545Z" fill="#6F8FAF"/>
<path d="M272.066 302.114C280.803 317.174 263.464 346.975 245.439 345.018C233.247 335.512 240.489 316.611 249.189 307.313C255.181 300.34 263.746 295.288 272.066 302.114Z" fill="#F2F9FA"/>
<path d="M415.947 331.182C431.264 345.324 439.4 367.553 442.782 387.653C434.07 371.651 425.198 357.069 408.264 348.615C377.814 330.558 332.586 345.385 318.923 378.148C306.694 410.347 332.194 450.474 359.299 467.198C375.657 477.303 395.336 482.747 413.533 473.804C423.74 469.901 430.357 462.414 439.032 456.358C436.827 466.023 431.803 474.048 426.693 482.355C414.685 491.005 403.081 502.223 389.087 508.181C372.9 510.212 356.738 509.306 343.308 499.128C326.337 487.432 317.588 468.213 312.87 448.761C304.991 412.011 306.878 365.987 330.981 335.158C351.812 309.198 392.935 306.653 415.947 331.182Z" fill="#B0CAE0"/>
<path d="M626.033 328.197C640.395 340.406 647.33 357.105 651.386 375.089C657.439 399.373 656.863 424.354 651.79 448.749C647.538 467.087 639.267 487.395 622.958 498.21C609.393 508.976 594.934 508.963 578.527 509.526C564.484 503.103 551.544 491.445 538.396 481.841C533.801 473.228 528.679 464.579 525.518 455.318C537.539 468.934 552.378 478.88 571.248 478.367C604.394 475.712 629.636 452.199 643.666 423.449C649.621 408.671 651.214 386.858 644.23 372.361C625.911 343.941 586.602 331.487 556.482 348.615C539.744 356.86 531.105 371.149 522.111 386.637C525.971 357.57 545.136 322.141 576.088 315.535C594.174 311.803 612.42 315.253 626.033 328.197Z" fill="#B1CBE1"/>
<path d="M152.496 318.948C154.481 324.526 152.913 332.98 153.317 339.097C146.247 340.858 138.539 339.965 131.261 340.369C131.126 334.949 132.278 329.664 134.226 324.636C135.819 317.626 147.301 316.782 152.496 318.948Z" fill="#F0F0F2"/>
<path d="M818.745 317.982C831.157 316.685 832.566 331.121 833.424 340.088C826.244 339.795 818.365 341.03 811.429 339.097C812.654 332.797 807.079 315.143 818.745 317.982Z" fill="#F0F5F4"/>
<path d="M163.525 320.245C163.941 321.872 164.382 323.474 164.725 325.114C164.15 338.877 164.297 352.86 164.603 366.623C164.407 368.899 164.199 371.162 164.039 373.437C162.25 356.029 163.292 337.788 163.525 320.245Z" fill="#4C5C7D"/>
<path d="M188.46 328.906C188.73 334.717 190.372 339.256 188.007 345.055C184.355 345.092 184.649 351.209 183.534 353.765C179.466 350.144 186.965 334.216 188.46 328.906Z" fill="#54627E"/>
<path d="M153.317 339.097C156.491 365.938 153.489 392.596 153.354 418.409C144.593 423.902 152.055 415.693 147.509 411.937C147.472 394.125 145.867 376.545 144.433 358.806C138.809 352.579 139.973 366.599 139.532 369.168C136.922 387.824 140.525 407.741 137.522 426.361C138.27 428.526 136.677 430.508 134.692 428.514C132.033 424.293 132.866 418.054 131.641 413.21C130.857 388.974 131.58 364.629 131.261 340.369C138.54 339.966 146.247 340.859 153.317 339.097Z" fill="#DC4C4E"/>
<path d="M811.429 339.097C818.364 341.03 826.243 339.794 833.424 340.088C833.228 366.061 833.865 392.143 833.105 418.103C831.12 423.682 834.539 432.086 827.493 434.227C826.464 412.781 826.513 390.296 825.202 369.168C824.675 365.534 826.293 352.444 819.075 358.818C818.94 370.966 817.654 382.735 817.188 394.859C814.884 407.166 817.36 420.244 815.914 432.674C813.622 436.699 812.569 429.028 811.196 427.621C812.471 397.807 807.692 369.486 811.429 339.097Z" fill="#DE4753"/>
<path d="M408.264 348.615C425.198 357.069 434.07 371.651 442.782 387.653C448.186 410.065 447.267 434.741 439.032 456.358C430.357 462.414 423.74 469.901 413.533 473.804C395.336 482.747 375.657 477.303 359.299 467.197C332.194 450.474 306.694 410.347 318.923 378.147C332.586 345.385 377.814 330.558 408.264 348.615Z" fill="#FAFBFA"/>
<path d="M644.23 372.36C651.214 386.858 649.621 408.67 643.666 423.449C629.636 452.198 604.394 475.712 571.248 478.367C552.377 478.88 537.538 468.934 525.518 455.318C517.357 433.848 516.916 408.842 522.111 386.637C531.105 371.149 539.744 356.86 556.482 348.615C586.602 331.487 625.911 343.941 644.23 372.36Z" fill="#F9FBFB"/>
<path d="M777.205 341.299C784.092 354.879 785.734 366.978 785.084 381.83C785.954 385.366 786.726 388.889 787.02 392.522C787.278 396.192 787.841 399.801 788.491 403.41C791.432 484.961 762.82 569.533 696.736 620.818C634.415 669.153 551.214 691.419 473.159 691.199C439.229 689.364 406.769 683.381 373.868 675.246C362.644 665.74 352.437 656.895 338.002 652.442C335.392 651.292 326.986 649.017 331.104 645.065C419.709 692.373 530.137 692.275 621.487 652.344C660.209 636.147 698.783 611.581 725.115 578.574C766.924 528.77 785.035 457.655 779.84 393.636C779.068 376.704 778.81 359.271 775.306 342.645L777.205 341.299Z" fill="#EAF3F7"/>
<path d="M188.007 345.055C184.76 367.834 183.35 390.491 184 413.503C182.309 456.982 193.153 500.999 213.568 539.364C216.031 543.781 212.808 546.02 210.7 549.58C183.24 504.058 171.979 447.623 176.599 394.932C177.542 389.292 178.67 383.689 179.687 378.062C180.373 369.62 181.28 361.974 183.534 353.765C184.649 351.208 184.355 345.091 188.007 345.055Z" fill="#E8EFF1"/>
<path d="M144.433 358.806C145.867 376.545 147.472 394.125 147.509 411.937C145.487 416.097 151.381 442.766 141.946 437.224C137.424 415.301 141.345 391.519 139.532 369.168C139.973 366.599 138.809 352.579 144.433 358.806Z" fill="#200A18"/>
<path d="M825.202 369.168C824.332 390.014 825.227 410.971 824.761 431.841C824.712 435.475 821.318 440.797 817.838 436.392C816.845 422.654 818.12 408.646 817.188 394.859C817.654 382.735 818.941 370.966 819.076 358.818C826.293 352.444 824.675 365.534 825.202 369.168Z" fill="#210818"/>
<path d="M139.532 369.168C141.345 391.519 137.424 415.302 141.946 437.225C151.381 442.767 145.487 416.097 147.509 411.937C152.055 415.693 144.592 423.902 153.354 418.409C153.329 428.612 153.44 438.815 153.366 449.018C154.322 456.371 142.632 456.628 138.956 452.358C127.83 444.21 131.886 425.187 131.64 413.21C132.866 418.054 132.033 424.294 134.692 428.514C136.677 430.508 138.27 428.526 137.522 426.361C140.524 407.741 136.922 387.825 139.532 369.168Z" fill="#A2334F"/>
<path d="M825.202 369.168C826.514 390.296 826.465 412.782 827.494 434.227C834.54 432.087 831.121 423.682 833.106 418.103C833.277 427.731 835.287 440.381 829.418 448.676C825.901 453.997 816.27 458.744 811.773 452.26C808.832 445.568 809.849 434.766 811.197 427.621C812.569 429.028 813.623 436.699 815.914 432.674C817.36 420.244 814.885 407.166 817.189 394.859C818.12 408.647 816.845 422.654 817.838 436.393C821.318 440.797 824.712 435.475 824.761 431.842C825.227 410.971 824.332 390.014 825.202 369.168Z" fill="#9E304B"/>
<path d="M391.501 377.23C413.018 372.936 421.976 397.55 421.78 414.726C422.821 427.902 419.01 443.195 409.845 453.031C401.88 460.664 390.656 461.876 382.176 454.205C369.518 443.476 367.607 424.489 369.506 409.062C371.834 395.446 377.324 381.964 391.501 377.23Z" fill="#0A0F28"/>
<path d="M564.288 377.254C571.554 375.187 578.661 378.894 583.832 383.775C600.362 401.135 600.558 438.803 581.798 454.67C574.25 460.102 562.266 460.909 555.539 453.63C543.665 442.314 541.558 422.275 543.641 406.909C545.871 394.002 549.657 380.411 564.288 377.254Z" fill="#0B1028"/>
<path d="M386.563 393.109C389.087 392.498 392.873 392.094 395.104 393.623C404.857 400.682 395.153 415.987 384.909 411.093C376.809 407.325 379.297 396.021 386.563 393.109Z" fill="#EAEFF3"/>
<path d="M558.124 393.109C570.096 390.027 574.446 405.404 563.111 410.286C550.049 415.571 547.231 396.926 558.124 393.109Z" fill="#E9EFF0"/>
<path d="M787.021 392.522C788.466 397.697 793.012 400.865 794.728 405.661C794.164 422.764 794.091 439.573 792.228 456.652C786.714 439.989 791.211 420.513 788.491 403.41C787.842 399.801 787.278 396.192 787.021 392.522Z" fill="#607B96"/>
<path d="M779.839 393.635C785.035 457.655 766.924 528.77 725.115 578.574C717.224 579.969 711.636 594.013 703.402 598.136C688.98 611.324 672.205 623.692 654.952 632.904C649.487 634.372 642.196 642.753 636.816 639.865C644.291 634.458 651.741 629.014 659.412 623.876C721.549 580.409 762.77 512.156 776.09 438.02C782.805 425.272 777.891 407.973 779.839 393.635Z" fill="#169DA3"/>
<path d="M176.599 394.932C171.979 447.623 183.24 504.058 210.7 549.58C209.119 551.574 206.742 560.333 204.328 554.669C185.09 521.442 174.234 484.276 171.023 446.069C171.109 427.046 164.125 411.717 176.599 394.932Z" fill="#7D9EB9"/>
<path d="M788.491 403.41C791.211 420.513 786.714 439.989 792.228 456.652C791.701 463.49 789.973 470.072 788.968 476.838C780.526 514.175 768.75 549.714 746.326 581.168C737.724 592.202 729.024 602.87 719.344 612.976C714.737 615.227 711.575 618.823 708.242 622.567C626.021 688.446 510.74 712.706 408.166 691.321C396.684 687.626 377.458 689.192 373.868 675.246C406.769 683.381 439.228 689.364 473.158 691.199C551.213 691.419 634.415 669.153 696.736 620.817C762.819 569.533 791.431 484.961 788.491 403.41Z" fill="#89A6C2"/>
<path d="M804.212 463.711C810.988 468.898 812.924 473.033 809.567 481.291C808.439 484.778 807.766 489.243 805.315 492.044C794.85 486.711 800.401 471.663 804.212 463.711Z" fill="#819BB8"/>
<path d="M160.804 464.677C163.463 467.76 163.684 472.837 165.007 476.617C168.107 481.89 166.808 494.026 159.91 493.941C157.496 484.655 148.832 470.721 160.804 464.677Z" fill="#7D9BB9"/>
<path d="M485.437 468.506C505.226 467.369 520.702 475.712 538.397 481.841C551.545 491.445 564.484 503.104 578.527 509.526C598.341 522.678 622.836 523.253 638.618 544.393C646.718 554.95 648.592 569.607 642.699 581.632C634.746 583.835 627.896 577.999 619.356 577.754C602.409 575.026 590.744 584.825 577.681 593.695C547.403 617.233 513.804 633.797 474.396 631.118C451.384 629.051 429.193 621.527 409.98 608.694C387.004 596.081 369.69 570.243 340.478 579.002C335.981 579.834 331.545 580.935 327.011 581.608C325.822 573.999 322.489 567.343 320.247 560.101C320.921 548.075 329.768 538.276 339.583 532.11C354.594 521.98 375.033 519.215 389.087 508.181C403.081 502.223 414.685 491.004 426.693 482.355C445.76 474.464 464.018 467.002 485.437 468.506Z" fill="#F8B035"/>
<path d="M788.968 476.837C789.961 480.544 790.88 484.019 790.243 487.909C785.366 508.67 780.391 528.807 770.882 548.063C764.952 560.676 758.371 574.157 746.326 581.167C768.75 549.714 780.526 514.175 788.968 476.837Z" fill="#263A5A"/>
<path d="M484.223 483.187C489.774 483.64 508.73 483.897 507.211 492.607C499.896 496.461 484.566 492.987 475.621 494.393C468.49 493.317 452.082 502.296 448.529 494.259C455.207 484.411 473.391 483.04 484.223 483.187Z" fill="#FAF7DF"/>
<path d="M794.421 504.07C812.238 519.448 793.564 540.515 789.336 557.924C780.183 576.238 769.645 594.368 757.121 610.602C753.09 610.309 744.905 603.446 748.63 599.188C770.012 570.194 783.369 538.007 794.421 504.07Z" fill="#83A6C4"/>
<path d="M172.714 505.269C180.042 523.204 188.044 540.747 195.849 558.462C202.062 567.686 203.164 577.657 197.626 587.517C183.755 569.019 172.96 546.583 165.902 524.635C164.309 517.87 167.274 509.551 172.714 505.269Z" fill="#83A0C2"/>
<path d="M277.531 543.989C294.465 550.082 303.496 565.117 306.988 582.036C305.947 597.059 300.617 617.943 287.383 626.837C259.935 638.654 227.892 616.682 223.015 588.532C221.63 582.513 222.059 576.103 221.63 569.79C227.867 544.063 253.931 534.41 277.531 543.989Z" fill="#FAFCFB"/>
<path d="M221.63 569.79C222.059 576.103 221.63 582.513 223.015 588.532C227.892 616.682 259.935 638.654 287.383 626.836C300.617 617.942 305.947 597.059 306.988 582.036C311.044 600.436 311.755 629.161 308.606 646.912C278.805 642.532 249.139 644.845 220.809 655.366C217.868 649.42 220.503 640.367 219.363 633.712C217.133 611.801 214.805 591.273 221.63 569.79Z" fill="#A0BAD5"/>
<path d="M409.98 608.694C429.193 621.527 451.384 629.051 474.396 631.119C513.804 633.798 547.403 617.233 577.681 593.695C590.743 584.826 602.409 575.026 619.355 577.755C617.53 582.905 609.491 580.63 605.117 583.199C589.69 590.172 577.889 604.681 563.614 613.906C514.894 649.665 446.434 648.356 398.817 611.287C385.619 601.757 373.182 586.233 357.289 581.767C352.719 579.785 343.137 583.26 340.478 579.002C369.69 570.243 387.004 596.081 409.98 608.694Z" fill="#22111B"/>
<path d="M619.355 577.754C627.896 577.999 634.746 583.835 642.698 581.632C636.522 595.628 617.358 600.656 603.793 603.715C589.297 606.614 580.94 622.579 568.393 630.874C520.714 669.887 440.221 670.132 394.197 628.182C381.698 618.884 376.135 605.268 359.691 602.748C349.006 600.411 328.493 594.625 327.011 581.608C331.545 580.935 335.98 579.834 340.477 579.002C343.136 583.26 352.719 579.785 357.289 581.767C373.182 586.232 385.619 601.757 398.816 611.287C446.434 648.356 514.894 649.665 563.614 613.905C577.889 604.681 589.69 590.172 605.117 583.198C609.491 580.629 617.53 582.905 619.355 577.754Z" fill="#E35D3D"/>
<path d="M725.115 578.574C698.782 611.581 660.208 636.147 621.487 652.344C623.681 646.68 631.425 642.239 636.816 639.866C642.196 642.753 649.487 634.373 654.952 632.905C672.205 623.693 688.98 611.324 703.402 598.136C711.636 594.013 717.224 579.969 725.115 578.574Z" fill="#206A7A"/>
<path d="M742.638 611.691C746.498 614.028 749.512 617.942 752.698 621.111C731.438 651.622 697.435 673.973 664.35 690C655.43 695.713 642.355 697.487 634.942 704.595C633.619 706.234 632.369 707.959 631.131 709.672C625.862 714.92 628.558 709.341 628.337 705.842C591.221 722.028 548.555 728.304 508.498 732.414C467.767 734.482 427.907 731.472 388.499 720.621L388.193 718.076C399.503 717.391 413.337 723.618 425.407 724.156C512.689 736.586 603.781 721.012 680.28 676.555C702.434 662.559 727.946 645.848 744.096 625.246C686.885 680.665 612.052 712.657 533.299 722.052C485.327 729.466 435.222 725.098 388.254 713.403C387.482 710.491 382.948 698.539 389.639 701.34C429.941 711.494 470.806 713.574 512.162 711.592C591.209 705.377 678.467 675.87 734.588 617.857C736.793 615.973 739.697 611.85 742.638 611.691Z" fill="#EAF3F7"/>
<path d="M719.344 612.976C716.771 619.374 714.627 620.573 708.243 622.567C711.576 618.823 714.737 615.227 719.344 612.976Z" fill="#142841"/>
<path d="M752.698 621.111C754.365 622.824 755.945 624.61 757.477 626.445C757.404 632.917 758.519 638.373 753.948 643.683C730.397 672.934 697.913 695.909 663.934 711.605C660.331 712.865 654.866 717.869 651.129 715.74C651.901 712.914 651.484 711.764 650.026 709.317C646.987 702.613 641.203 702.625 634.942 704.595C642.355 697.487 655.43 695.713 664.35 690C697.435 673.974 731.438 651.622 752.698 621.111Z" fill="#94AFCD"/>
<path d="M744.096 625.246C727.946 645.848 702.434 662.559 680.28 676.555C603.781 721.012 512.689 736.586 425.407 724.157C413.337 723.618 399.503 717.391 388.193 718.076C388.034 716.498 388.181 714.993 388.254 713.403C435.222 725.099 485.326 729.466 533.299 722.052C612.052 712.657 686.885 680.665 744.096 625.246Z" fill="#89A2B5"/>
<path d="M307.54 663.489C325.969 666.07 346.188 670.756 358.27 686.158C360.439 695.456 359.899 712.681 348.651 716.119C333.321 717.465 317.049 716.987 301.401 718.859C291.439 720.572 271.049 724.854 266.062 733.882C279.1 743.559 301.756 745.407 317.49 748.82C331.557 751.927 346.849 752.649 355.415 766.021C361.247 774.315 357.583 784.102 349.423 789.032C336.066 795.076 318.911 794.733 304.55 795.688C289.16 797.902 265.486 799.774 252.387 807.457C267.189 818.589 284.111 824.498 302.639 826.223C315.076 828.707 331.949 827.777 342.426 835.203C352.143 841.944 348.013 854.52 340.38 860.747C312.123 876.492 272.164 868.112 241.604 878.511C256.602 892.396 274.566 899.528 294.282 904.079C301.781 906 312.907 908.398 317.625 915.016C322.355 924.131 313.25 930.932 305.825 934.028C288.951 941.307 267.349 940.561 248.944 942.078C211.436 941.405 176.035 935.912 153.403 902.721C141.199 869.886 140.917 830.897 143.625 796.397C146.186 758.485 157.839 714.712 188.877 689.951C221.386 665.226 267.839 657.972 307.54 663.489Z" fill="#FBFCFB"/>
<path d="M747.76 682.659C761.055 692.911 775.771 707.298 785.108 721.587C789.985 734.555 802.68 747.523 809.91 759.965C838.571 801.535 863.102 845.442 880.073 893.093C874.522 887.074 876.226 889.765 873.138 895.344C856.841 863.035 840.654 830.872 820.693 800.569C804.616 777.973 786.836 748.122 766.226 730.31C795.046 828.132 825.153 932.743 828.523 1035.01C828.657 1041.72 825.472 1038.13 825.913 1033.77C808.696 914.771 781.42 797.975 747.76 682.659Z" fill="#344D6A"/>
<path d="M358.269 686.158C368.832 697.707 369.947 717.819 368.734 732.61C368.183 735.766 367.264 742.715 362.448 740.66C337.72 730.653 309.66 727.362 283.229 730.383C281.207 730.922 277.69 729.197 278.56 732.561C300.727 733.638 323.298 736.329 344.68 742.446C358.527 746.52 370.989 752.025 374.922 767.268C377.912 781.154 377.875 799.945 368.146 811.433C363.281 820.302 352.51 810.76 344.766 810.747C321.742 807.42 299.109 805.878 275.95 809.035C276.318 811.579 276.955 812.179 279.577 812.264C297.259 812.167 315.015 814.197 332.5 816.828C344.558 819.128 364.347 821.807 366.259 837.001C372.189 860.515 358.441 889.888 331.03 888.224C308.557 884.64 286.268 885.936 263.623 885.704C261.663 886.206 258.072 884.591 258.967 887.857C280.313 889.851 304.011 890.622 324.486 897.13C331.275 898.953 336.446 902.954 336.912 910.416C336.985 924.742 330.086 938.199 318.776 946.861C298.73 958.899 278.242 956.22 256.32 956.905C259.126 962.728 273.794 962.08 278.401 965.334C230.428 991.319 163.916 954.788 153.403 902.721C176.035 935.912 211.436 941.405 248.944 942.078C267.348 940.561 288.951 941.307 305.824 934.028C313.25 930.932 322.354 924.131 317.625 915.016C312.907 908.398 301.781 906 294.282 904.079C274.566 899.528 256.602 892.396 241.604 878.511C272.164 868.112 312.123 876.492 340.379 860.747C348.013 854.52 352.143 841.944 342.426 835.203C331.949 827.777 315.076 828.707 302.638 826.223C284.111 824.498 267.189 818.589 252.387 807.457C265.486 799.774 289.16 797.902 304.55 795.688C318.911 794.733 336.066 795.076 349.422 789.032C357.583 784.102 361.247 774.315 355.414 766.021C346.849 752.649 331.557 751.927 317.49 748.82C301.756 745.407 279.099 743.559 266.062 733.882C271.049 724.854 291.439 720.572 301.401 718.859C317.049 716.987 333.321 717.465 348.65 716.119C359.899 712.681 360.438 695.456 358.269 686.158Z" fill="#9CB8D6"/>
<path d="M628.337 705.843C628.558 709.342 625.862 714.92 631.131 709.672C628.594 716.095 641.105 723.655 632.148 725.197C591.674 741.284 549.51 747.499 506.267 749.995C467.301 750.57 428.151 749.358 390.043 739.889C382.85 738.801 389.859 725.564 388.499 720.621C427.906 731.473 467.767 734.482 508.498 732.415C548.554 728.304 591.221 722.028 628.337 705.843Z" fill="#93AFCD"/>
<path d="M650.026 709.317C651.484 711.764 651.901 712.914 651.129 715.74C649.658 715.568 648.776 714.015 648.801 716.364C644.536 723.398 637.233 719.581 636.118 712.106C639.868 704.778 643.764 707.678 650.026 709.317Z" fill="#B74C44"/>
<path d="M785.109 721.587C851.498 794.513 893.577 892.763 914.678 988.26C913.881 988.75 913.085 989.251 912.288 989.741C903.221 957.137 893.54 924.167 880.074 893.093C863.103 845.443 838.571 801.535 809.91 759.965C802.68 747.523 789.986 734.555 785.109 721.587Z" fill="#DDE1EA"/>
<path d="M672.021 727.276C673.724 726.395 675.917 731.644 676.481 732.928C691.136 771.685 706 810.723 718.376 850.226C700.522 824.401 675.881 800.288 646.092 789.302C611.881 806.307 576.934 821.538 539.83 831.239C523.582 835.448 509.968 842.984 493.266 836.243C470.965 829.698 448.713 822.7 426.963 814.516C416.082 811.494 404.281 802.881 393.462 802.147C396.991 786.855 395.888 773.679 391.378 758.791C394.184 755.952 403.13 760.748 407.247 760.601C494.97 775.233 591.319 765.996 672.021 727.276Z" fill="#9DBBD6"/>
<path d="M646.093 789.302C675.881 800.288 700.523 824.401 718.376 850.226C741.474 900.311 761.545 952.379 777.254 1005.23C776.2 1011.6 775.575 1012.62 777.524 1018.61C769.216 1024.23 768.358 1031.75 774.215 1039.17C768.971 1040.9 768.187 1045.56 767.121 1050.33C768.138 1052.99 771.14 1054.15 768.236 1056.75C765.381 1061.81 763.163 1048.05 761.496 1055.45C758.751 1064.22 764.988 1064.01 765.76 1070.06C758.126 1077.44 758.727 1060.65 753.593 1067.87C748.042 1070.41 759.56 1074.74 760.994 1077.68C762.991 1073.98 768.04 1071.71 765.16 1078.14C760.982 1084.05 756.509 1074.46 751.485 1075.46C750.444 1078.58 754.438 1079.56 756.141 1081.53C754.23 1088.59 745.836 1089.84 750.015 1098.52C744.746 1096.47 737.234 1091.76 741.241 1102.27C730.397 1098.95 735.935 1104.4 727.407 1110.38C738.852 1120.42 705.706 1110.39 717.972 1119.48C715.006 1123.65 711.392 1127.29 706.539 1129.19C709.125 1120.42 699.408 1123.2 696.381 1125.77C695.033 1131.02 700.572 1123.13 701.478 1127.16C702.091 1132.11 707.887 1130.27 708.438 1136.45C703.378 1131.43 692.754 1133.32 703.378 1138.92C696.847 1144.71 702.226 1143.07 707.213 1142.96C699.665 1152.7 696.945 1138.72 696.736 1132.97C688.318 1135.92 684.189 1138.87 674.165 1138C682.865 1145.07 667.205 1147.88 662.953 1142.92C655.246 1147.32 655.099 1131.49 651.043 1139.92C656.704 1144.14 652.036 1145.65 648.421 1148.87C644.291 1145.88 644.928 1140.95 640.848 1147.5C634.194 1140.71 628.349 1137.19 617.946 1139.19C616.684 1144.82 633.337 1139.1 629.232 1144.27C628.717 1150.8 613.621 1139.37 620.115 1146.41C624.502 1153.48 611.158 1143.51 614.393 1140.67C617.003 1132.08 607.862 1143.52 604.529 1141.76C614.846 1146.84 591.43 1140.71 591.883 1146.14C591.246 1156.98 582.19 1141.66 575.672 1147.18C566.579 1152.59 573.074 1141.2 565.085 1142.64C557.634 1141.83 571.015 1148.01 563.871 1147.4C558.37 1147.45 557.659 1152.51 551.655 1152.27C549.241 1161.22 538.739 1151.73 532 1156.08C515.593 1156.4 539.009 1152.82 539.389 1146.48C535.076 1147.35 531.093 1149.23 526.988 1150.75C527.613 1148.34 528.447 1146.02 529.059 1143.61C525.077 1145.15 521.879 1151.77 517.872 1145.77C515.642 1139.31 505.263 1145.33 510.262 1137.06C516.695 1137.18 519.698 1139.49 513.669 1132.83C524.697 1128.97 513.313 1126.58 510.863 1132.97C507.419 1131.1 509.931 1126.1 507.689 1124.46C506.721 1127.27 509.331 1134.38 504.356 1132.61C499.43 1110.62 503.596 1086.42 500.472 1064.05C498.744 1020.72 499.32 980.418 497.457 937.319C494.063 936.438 495.73 939.937 495.215 941.98C495.607 998.414 494.296 1060.16 492.764 1116.73C490.657 1121.34 488.598 1122.42 491.649 1127.25C486.809 1126.47 485.069 1127.32 480.976 1129.62C477.619 1131.74 470.928 1126.45 470.745 1132.67C474.592 1133.06 478.268 1132.63 482.091 1132.36C475.144 1133.99 475.193 1145.09 470.671 1135.4C465.868 1138.57 466.517 1140.47 461.849 1135.59C458.307 1130.71 450.024 1134.74 446.814 1138.3C440.491 1140.13 431.95 1138.55 425.37 1137.99C426.963 1142.13 432.685 1141.38 432.906 1146.87C427.759 1146.13 423.397 1146.42 418.287 1147.1C415.04 1145.04 415.187 1142.87 411.18 1145.46C405.103 1141.02 412.406 1131.56 402.125 1132.78C393.155 1133.11 402.027 1137.12 405.642 1135.89C407.198 1143.91 399.772 1135.73 398.486 1142.65C396.108 1149.76 389.369 1146.75 385.301 1142.98C394.614 1142.1 392.371 1136.8 390.974 1130C388.058 1131.04 385.08 1131.71 382.09 1132.51C381.845 1135.54 383.757 1137.87 382.201 1141.29C375.216 1140.47 369.457 1135.02 362.938 1138.92C358.956 1135.48 359.189 1134.01 361.235 1129.49C351.726 1132.94 356.223 1120.92 346.96 1126.59C347.303 1122.16 351.886 1123.08 353.123 1119.48C347.217 1118.22 346.433 1124.29 340.882 1124.34C343.063 1119.15 349.766 1118.83 351.873 1114.56C347.425 1112.35 341.323 1122.92 342.487 1114.31C336.471 1120.23 327.06 1115.7 330.479 1108.68C329.18 1106.1 327.158 1106.68 324.756 1106.21C326.656 1100.79 332.108 1107.39 336.029 1107.08C331.581 1104.76 334.081 1096.58 329.217 1099.18C323.531 1103.74 324.425 1102.08 321.068 1096.8C329.511 1097.7 324.156 1096.57 320.749 1093.67C326.165 1085.67 313.74 1087.17 318.323 1080.05C317.147 1079.27 305.518 1082.91 305.481 1076.88C308.508 1075.71 315.321 1077.75 315.909 1073.53C309.966 1070.35 305.383 1069.68 313.189 1064.11C310.395 1072.98 319.585 1067.28 316.767 1062.68C312.025 1052.63 318.911 1051.4 322.207 1043.42C320.945 1026.99 333.775 1013.18 329.78 1000.08C332.991 983.697 333.799 970.901 335.931 955.437C351.334 940.769 356.836 922.92 354.667 902.049C377.642 889.619 389.099 864.515 385.35 838.983C384.664 832.891 380.056 826.052 384.7 820.633C389.075 814.846 391.513 809.108 393.462 802.147C404.282 802.881 416.082 811.494 426.963 814.516C448.713 822.7 470.965 829.698 493.267 836.243C509.968 842.984 523.582 835.448 539.83 831.239C576.934 821.538 611.881 806.307 646.093 789.302Z" fill="#FCFCFA"/>
<path d="M122.916 807.371C115.148 812.387 113.542 820.877 106.497 826.688C100.884 831.117 95.6399 835.815 90.9468 841.222C84.526 848.819 77.5292 855.805 71.2187 863.524C66.1457 867.39 63.3274 872.724 59.296 877.483C57.6785 878.608 55.3136 882.841 55.0195 878.425C70.4835 845.956 93.2995 817.574 120.588 794.269C129.117 784.873 123.076 803.982 122.916 807.371Z" fill="#E6EDF0"/>
<path d="M122.916 807.371C120.11 826.652 112.255 860.808 105.516 878.119C102.649 871.697 105.455 857.615 104.082 848.942C93.7526 862.179 87.344 885.362 82.173 900.152C78.5092 891.968 85.5427 865.396 88.312 854.985C88.5938 851.976 96.1297 842.091 90.9465 841.222C95.6396 835.815 100.884 831.117 106.496 826.688C113.542 820.877 115.147 812.387 122.916 807.371Z" fill="#304B67"/>
<path d="M71.2185 863.524C68.7311 876.884 57.9112 888.812 52.8873 901.633C47.606 908.998 44.0157 925.097 38.3301 929.697C40.646 911.983 47.3609 894.488 55.0194 878.425C55.3135 882.842 57.6784 878.609 59.2959 877.483C63.3273 872.724 66.1456 867.39 71.2185 863.524Z" fill="#344A66"/>
<path d="M497.457 937.319C499.32 980.418 498.744 1020.72 500.472 1064.05C499.81 1084.98 500.141 1106.24 500.349 1127.18C499.418 1129.67 499.442 1133.6 495.766 1132.62C494.308 1127.4 493.524 1122.09 492.764 1116.73C494.296 1060.16 495.607 998.414 495.215 941.98C495.73 939.937 494.063 936.438 497.457 937.319Z" fill="#B5C9D8"/>
<path d="M914.678 988.26C916.283 995.16 918.292 1002.11 919.101 1009.17C915.106 1007.97 914.187 994.181 912.288 989.741C913.085 989.251 913.881 988.75 914.678 988.26Z" fill="#6E7387"/>
<path d="M329.78 1000.08C333.775 1013.18 320.946 1026.99 322.208 1043.42C318.911 1051.4 312.025 1052.63 316.767 1062.68C319.585 1067.28 310.395 1072.98 313.189 1064.11C305.384 1069.68 309.966 1070.35 315.909 1073.53C315.321 1077.75 308.508 1075.71 305.482 1076.88C305.518 1082.91 317.147 1079.27 318.323 1080.05C313.74 1087.17 326.166 1085.67 320.749 1093.67C324.156 1096.57 329.511 1097.7 321.068 1096.8C324.426 1102.08 323.531 1103.74 329.217 1099.18C334.081 1096.58 331.582 1104.76 336.03 1107.08C332.108 1107.39 326.656 1100.79 324.756 1106.21C327.158 1106.68 329.18 1106.1 330.479 1108.68C327.06 1115.7 336.471 1120.23 342.487 1114.31C341.323 1122.92 347.425 1112.35 351.873 1114.56C349.766 1118.83 343.063 1119.15 340.882 1124.34C346.433 1124.29 347.217 1118.22 353.123 1119.48C351.886 1123.08 347.303 1122.16 346.96 1126.59C356.223 1120.92 351.726 1132.94 361.235 1129.49C359.189 1134.01 358.956 1135.48 362.938 1138.92C369.457 1135.02 375.216 1140.47 382.201 1141.29C383.757 1137.87 381.846 1135.54 382.091 1132.51C385.08 1131.71 388.058 1131.04 390.974 1130C392.371 1136.8 394.614 1142.1 385.301 1142.98C389.369 1146.75 396.109 1149.76 398.486 1142.65C399.772 1135.73 407.198 1143.91 405.642 1135.89C402.027 1137.12 393.156 1133.11 402.125 1132.78C412.406 1131.56 405.103 1141.02 411.18 1145.46C415.187 1142.87 415.04 1145.04 418.288 1147.1C423.397 1146.42 427.759 1146.13 432.906 1146.87C432.685 1141.38 426.963 1142.13 425.37 1137.99C431.95 1138.55 440.491 1140.13 446.814 1138.3C450.024 1134.74 458.307 1130.71 461.849 1135.59C466.517 1140.47 465.868 1138.57 470.671 1135.4C475.193 1145.09 475.144 1133.99 482.092 1132.36C478.268 1132.63 474.592 1133.06 470.745 1132.67C470.929 1126.45 477.619 1131.74 480.976 1129.62C485.069 1127.32 486.809 1126.47 491.649 1127.25C488.598 1122.42 490.657 1121.34 492.764 1116.73C493.524 1122.09 494.308 1127.4 495.766 1132.62C499.443 1133.6 499.418 1129.67 500.349 1127.18C500.141 1106.24 499.81 1084.98 500.472 1064.05C503.596 1086.42 499.43 1110.62 504.356 1132.61C509.331 1134.38 506.721 1127.27 507.689 1124.46C509.932 1126.1 507.42 1131.1 510.863 1132.97C513.314 1126.58 524.697 1128.97 513.669 1132.83C519.698 1139.49 516.696 1137.18 510.262 1137.06C505.263 1145.33 515.642 1139.31 517.872 1145.77C521.879 1151.77 525.077 1145.15 529.059 1143.61C528.447 1146.02 527.613 1148.34 526.988 1150.75C531.093 1149.23 535.076 1147.35 539.389 1146.48C539.009 1152.82 515.593 1156.4 532 1156.08C538.74 1151.73 549.241 1161.22 551.655 1152.27C557.659 1152.51 558.37 1147.45 563.872 1147.4C571.015 1148.01 557.635 1141.83 565.085 1142.64C573.074 1141.2 566.58 1152.59 575.672 1147.18C582.191 1141.66 591.246 1156.98 591.883 1146.14C591.43 1140.71 614.846 1146.84 604.529 1141.76C607.862 1143.52 617.003 1132.08 614.393 1140.67C611.158 1143.51 624.502 1153.48 620.115 1146.41C613.621 1139.37 628.717 1150.8 629.232 1144.27C633.337 1139.1 616.684 1144.82 617.946 1139.19C628.35 1137.19 634.195 1140.71 640.848 1147.5C644.929 1140.95 644.291 1145.88 648.421 1148.87C652.036 1145.65 656.704 1144.14 651.043 1139.92C655.099 1131.49 655.246 1147.32 662.954 1142.92C667.206 1147.87 682.866 1145.07 674.166 1138C684.189 1138.87 688.318 1135.92 696.736 1132.97C696.945 1138.72 699.665 1152.7 707.213 1142.96C702.226 1143.07 696.847 1144.71 703.378 1138.92C692.754 1133.32 703.378 1131.43 708.439 1136.45C707.887 1130.27 702.091 1132.11 701.479 1127.16C700.572 1123.13 695.033 1131.02 696.381 1125.77C699.408 1123.2 709.125 1120.42 706.539 1129.19C711.392 1127.29 715.007 1123.65 717.972 1119.48C705.706 1110.39 738.852 1120.42 727.407 1110.38C735.935 1104.4 730.397 1098.95 741.241 1102.27C737.234 1091.76 744.746 1096.47 750.015 1098.52C745.836 1089.84 754.23 1088.59 756.142 1081.53C754.438 1079.56 750.444 1078.58 751.485 1075.46C756.509 1074.46 760.982 1084.05 765.16 1078.14C768.04 1071.71 762.991 1073.98 760.994 1077.68C759.56 1074.74 748.042 1070.41 753.593 1067.87C758.727 1060.65 758.127 1077.44 765.761 1070.06C764.989 1064.01 758.752 1064.22 761.496 1055.45C763.163 1048.05 765.381 1061.81 768.236 1056.75C771.14 1054.15 768.138 1052.99 767.121 1050.33C768.187 1045.56 768.971 1040.9 774.215 1039.17C768.358 1031.75 769.216 1024.23 777.524 1018.61C775.576 1012.62 776.201 1011.6 777.254 1005.23C782.242 1018.78 786.065 1032.94 789.569 1046.95C790.574 1066.63 783.92 1087.87 777.646 1106.43C769.314 1133.15 753.519 1155.33 731.108 1172H343.737C315.113 1155.33 296.132 1129.94 286.783 1098.3C307.81 1067.79 320.909 1035.94 329.78 1000.08Z" fill="#77C046"/>
<path d="M789.569 1046.95C800.756 1087.9 808.121 1130.11 814.909 1172H731.107C753.519 1155.33 769.314 1133.15 777.646 1106.43C783.92 1087.87 790.574 1066.63 789.569 1046.95Z" fill="#9FBAD2"/>
<path d="M286.783 1098.3C296.132 1129.94 315.113 1155.33 343.737 1172H254.997C257.411 1159.64 259.372 1147.18 261.798 1134.82C261.651 1119.71 278.806 1110.63 286.783 1098.3Z" fill="#9FBAD0"/>
<path d="M331 1016V995.5L286 1099L296 1141.5L339.5 1172H733L751 1169L782.5 1112.5L790.5 1050L777.5 1003.5L769.5 1016L742 1045.5C736.5 1055.17 725.3 1074.8 724.5 1076C723.7 1077.2 704.167 1103.83 694.5 1117L585.5 1122.5L534 1133L512.5 1110.5L500 1056.5V1126.5C499.2 1131.7 497.333 1133 496.5 1133L492.5 1118.5L489.5 1117L482.5 1118.5L452 1125L389 1122.5L341 1099L322 1074.5L331 1016Z" fill="#FCFCFA"/>
</g>
<defs>
<clipPath id="clip0_58_2">
<rect width="957" height="1172" fill="white" transform="translate(10)"/>
</clipPath>
</defs>
</svg>
